<svg xmlns="http://www.w3.org/2000/svg" width="36.467" height="36.467" viewBox="0 0 36.467 36.467">
  <path id="save-regular" d="M35.323,39.972l-6.828-6.828A3.907,3.907,0,0,0,25.732,32H3.907A3.907,3.907,0,0,0,0,35.907V64.56a3.907,3.907,0,0,0,3.907,3.907H32.56a3.907,3.907,0,0,0,3.907-3.907V42.735a3.907,3.907,0,0,0-1.144-2.763ZM22.141,35.907v6.512H11.722V35.907ZM32.072,64.56H4.4a.488.488,0,0,1-.488-.488V36.4a.488.488,0,0,1,.488-.488H7.814v8.466a1.954,1.954,0,0,0,1.954,1.954H24.095a1.954,1.954,0,0,0,1.954-1.954v-8.15l6.369,6.369a.488.488,0,0,1,.143.345V64.072A.488.488,0,0,1,32.072,64.56ZM18.234,48.28A7.163,7.163,0,1,0,25.4,55.443,7.171,7.171,0,0,0,18.234,48.28Zm0,10.419a3.256,3.256,0,1,1,3.256-3.256A3.26,3.26,0,0,1,18.234,58.7Z" transform="translate(0 -32)" fill="rgba(172,171,176,0.93)"/>
</svg>
