<svg xmlns="http://www.w3.org/2000/svg" width="33.797" height="38.625" viewBox="0 0 33.797 38.625">
  <path id="trash-alt-regular" d="M20.218,31.383h1.811a.905.905,0,0,0,.905-.905V14.183a.905.905,0,0,0-.905-.905H20.218a.905.905,0,0,0-.905.905V30.478A.905.905,0,0,0,20.218,31.383ZM32.59,6.035H26.373L23.808,1.758A3.621,3.621,0,0,0,20.7,0H13.1A3.621,3.621,0,0,0,9.99,1.758L7.424,6.035H1.207A1.207,1.207,0,0,0,0,7.242V8.449A1.207,1.207,0,0,0,1.207,9.656H2.414V35a3.621,3.621,0,0,0,3.621,3.621H27.762A3.621,3.621,0,0,0,31.383,35V9.656H32.59A1.207,1.207,0,0,0,33.8,8.449V7.242A1.207,1.207,0,0,0,32.59,6.035ZM12.964,3.841a.453.453,0,0,1,.389-.22h7.091a.453.453,0,0,1,.389.22L22.15,6.035h-10.5ZM27.762,35H6.035V9.656H27.762ZM11.769,31.383h1.811a.905.905,0,0,0,.905-.905V14.183a.905.905,0,0,0-.905-.905H11.769a.905.905,0,0,0-.905.905V30.478A.905.905,0,0,0,11.769,31.383Z" fill="rgba(172,171,176,0.93)"/>
</svg>
